<?xml version="1.0" encoding="utf-8"?>
<!-- Generator: Adobe Illustrator 23.0.3, SVG Export Plug-In . SVG Version: 6.00 Build 0)  -->
<svg version="1.1" id="Warstwa_1" xmlns="http://www.w3.org/2000/svg" xmlns:xlink="http://www.w3.org/1999/xlink" x="0px" y="0px"
	 viewBox="0 0 316.6 91.5" style="enable-background:new 0 0 316.6 91.5;" xml:space="preserve">
<style type="text/css">
	.st0{fill-rule:evenodd;clip-rule:evenodd;fill:#878786;}
	.st1{fill-rule:evenodd;clip-rule:evenodd;fill:#004782;}
</style>
<path class="st0" d="M0.2,87.8l0.2-1.3l6.2-7.5l1.3-1.6c0.3-0.3,0.5-0.6,0.8-0.9c-0.5,0.1-0.9,0.1-1.1,0.1l-0.4,0l-0.5,0l-0.5,0H1.9
	l0.3-1.4h8.6l-0.1,1.3L4,84.6c-0.8,1-1.3,1.6-1.6,1.8c0.2,0,0.4,0,0.5,0h6.8l-0.3,1.4H0.2L0.2,87.8z M17,86.7c-0.5,0.5-1,0.8-1.5,1
	c-0.5,0.2-1,0.3-1.6,0.3c-0.8,0-1.5-0.2-2-0.7c-0.5-0.5-0.8-1.1-0.8-1.9c0-0.5,0.1-1,0.3-1.3c0.2-0.4,0.5-0.7,0.9-0.9
	c0.4-0.2,0.8-0.4,1.4-0.5c0.3-0.1,1-0.1,2-0.2c1,0,1.7-0.1,2.1-0.3c0.1-0.4,0.2-0.8,0.2-1c0-0.4-0.1-0.6-0.4-0.8
	c-0.4-0.3-0.9-0.4-1.6-0.4c-0.6,0-1.2,0.1-1.6,0.4c-0.4,0.3-0.7,0.7-0.9,1.2L12,81.4c0.3-0.9,0.8-1.6,1.5-2.1
	c0.7-0.5,1.6-0.7,2.6-0.7c1.1,0,2,0.3,2.7,0.8c0.5,0.4,0.7,0.9,0.7,1.5c0,0.5-0.1,1-0.2,1.7l-0.5,2.2c-0.2,0.7-0.2,1.3-0.2,1.7
	c0,0.3,0.1,0.7,0.2,1.2h-1.6C17.1,87.5,17.1,87.2,17,86.7L17,86.7z M17.6,83.3c-0.2,0.1-0.4,0.2-0.7,0.2c-0.2,0-0.7,0.1-1.2,0.1
	c-0.9,0.1-1.5,0.2-1.9,0.3c-0.4,0.1-0.6,0.3-0.8,0.6c-0.2,0.3-0.3,0.6-0.3,0.9c0,0.4,0.1,0.8,0.4,1.1c0.3,0.3,0.7,0.4,1.3,0.4
	c0.5,0,1-0.1,1.5-0.4c0.5-0.3,0.8-0.6,1.1-1.1C17.2,84.8,17.4,84.2,17.6,83.3L17.6,83.3z M20.6,87.8l1.9-9h1.4l-0.4,1.8
	c0.5-0.7,0.9-1.2,1.4-1.5c0.4-0.3,0.9-0.5,1.4-0.5c0.3,0,0.7,0.1,1.1,0.3l-0.6,1.4c-0.3-0.2-0.6-0.3-0.9-0.3c-0.5,0-1.1,0.3-1.7,0.9
	c-0.6,0.6-1,1.7-1.3,3.2l-0.8,3.6H20.6L20.6,87.8z M26.2,87.8h7.3l0.3-1.4h-3.6c-0.3,0-0.9,0-1.8,0.1c0.5-0.5,1-1,1.2-1.3l4.9-5.5
	l0.2-1h-7l-0.3,1.3h3.4c0.3,0,0.8,0,1.6-0.1c-0.4,0.4-0.8,0.8-1.2,1.2l-4.9,5.5L26.2,87.8L26.2,87.8z M41.2,86.7
	c-0.5,0.5-1,0.8-1.5,1c-0.5,0.2-1,0.3-1.6,0.3c-0.8,0-1.5-0.2-2-0.7c-0.5-0.5-0.8-1.1-0.8-1.9c0-0.5,0.1-1,0.3-1.3
	c0.2-0.4,0.5-0.7,0.9-0.9c0.4-0.2,0.8-0.4,1.4-0.5c0.3-0.1,1-0.1,2-0.2c1,0,1.7-0.1,2.1-0.3c0.1-0.4,0.2-0.8,0.2-1
	c0-0.4-0.1-0.6-0.4-0.8c-0.4-0.3-0.9-0.4-1.6-0.4c-0.6,0-1.2,0.1-1.6,0.4c-0.4,0.3-0.7,0.7-0.9,1.2l-1.6-0.1
	c0.3-0.9,0.8-1.6,1.5-2.1c0.7-0.5,1.6-0.7,2.6-0.7c1.1,0,2,0.3,2.7,0.8c0.5,0.4,0.7,0.9,0.7,1.5c0,0.5-0.1,1-0.2,1.7L43,84.9
	c-0.2,0.7-0.2,1.3-0.2,1.7c0,0.3,0.1,0.7,0.2,1.2h-1.6C41.3,87.5,41.2,87.2,41.2,86.7L41.2,86.7z M41.8,83.3
	c-0.2,0.1-0.4,0.2-0.7,0.2c-0.2,0-0.7,0.1-1.2,0.1c-0.9,0.1-1.5,0.2-1.9,0.3c-0.4,0.1-0.6,0.3-0.8,0.6c-0.2,0.3-0.3,0.6-0.3,0.9
	c0,0.4,0.1,0.8,0.4,1.1c0.3,0.3,0.7,0.4,1.3,0.4c0.5,0,1-0.1,1.5-0.4c0.5-0.3,0.8-0.6,1.1-1.1C41.4,84.8,41.6,84.2,41.8,83.3
	L41.8,83.3z M42.8,90.1c-0.3,0.1-0.6,0.2-0.8,0.2c-0.5,0-0.7-0.2-0.7-0.6c0-0.1,0-0.2,0-0.2c0.1-0.7,0.6-1.2,1.4-1.6h-1.1
	c-0.4,0.3-0.8,0.6-1.1,1c-0.4,0.5-0.6,1-0.6,1.5c0,0.3,0.1,0.5,0.2,0.7c0.2,0.3,0.6,0.5,1.2,0.5c0.4,0,0.8-0.1,1.2-0.3L42.8,90.1
	L42.8,90.1z M50.9,86.5c-0.9,1-1.8,1.5-2.8,1.5c-0.9,0-1.6-0.3-2.1-0.9c-0.6-0.6-0.9-1.5-0.9-2.8c0-1.1,0.2-2.1,0.7-3
	c0.5-0.9,1-1.6,1.7-2c0.7-0.5,1.4-0.7,2-0.7c1.1,0,2,0.5,2.5,1.6l1-4.9h1.5L52,87.8h-1.4L50.9,86.5L50.9,86.5z M46.7,84.1
	c0,0.6,0.1,1.1,0.2,1.5c0.1,0.4,0.3,0.7,0.6,0.9c0.3,0.2,0.7,0.4,1.1,0.4c0.7,0,1.3-0.4,1.9-1.1c0.8-1,1.1-2.2,1.1-3.6
	c0-0.7-0.2-1.3-0.6-1.7c-0.4-0.4-0.8-0.6-1.4-0.6c-0.4,0-0.7,0.1-1,0.2c-0.3,0.2-0.6,0.4-0.9,0.8c-0.3,0.4-0.5,0.9-0.8,1.5
	C46.8,83.1,46.7,83.6,46.7,84.1L46.7,84.1z M60.7,84.5l1.5,0.2c-0.4,1.1-0.9,2-1.6,2.5c-0.7,0.5-1.5,0.8-2.4,0.8c-1,0-1.8-0.3-2.4-1
	c-0.6-0.6-0.9-1.5-0.9-2.7c0-1,0.2-2,0.6-2.9c0.4-1,1-1.7,1.7-2.2c0.7-0.5,1.6-0.7,2.5-0.7c1,0,1.7,0.3,2.3,0.8
	c0.6,0.5,0.9,1.3,0.9,2.2l-1.5,0.1c0-0.6-0.2-1-0.5-1.3c-0.3-0.3-0.8-0.5-1.3-0.5c-0.6,0-1.2,0.2-1.6,0.6c-0.5,0.4-0.8,1-1.1,1.8
	c-0.3,0.8-0.4,1.6-0.4,2.3c0,0.8,0.2,1.3,0.5,1.7c0.3,0.4,0.8,0.6,1.3,0.6c0.5,0,1-0.2,1.4-0.6C60.1,85.9,60.5,85.3,60.7,84.5
	L60.7,84.5z M69.3,86.7c-0.5,0.5-1,0.8-1.5,1c-0.5,0.2-1,0.3-1.6,0.3c-0.8,0-1.5-0.2-2-0.7c-0.5-0.5-0.8-1.1-0.8-1.9
	c0-0.5,0.1-1,0.3-1.3c0.2-0.4,0.5-0.7,0.9-0.9c0.4-0.2,0.8-0.4,1.4-0.5c0.3-0.1,1-0.1,2-0.2c1,0,1.7-0.1,2.1-0.3
	c0.1-0.4,0.2-0.8,0.2-1c0-0.4-0.1-0.6-0.4-0.8c-0.4-0.3-0.9-0.4-1.6-0.4c-0.6,0-1.2,0.1-1.6,0.4c-0.4,0.3-0.7,0.7-0.9,1.2l-1.6-0.1
	c0.3-0.9,0.8-1.6,1.5-2.1c0.7-0.5,1.6-0.7,2.6-0.7c1.1,0,2,0.3,2.7,0.8c0.5,0.4,0.7,0.9,0.7,1.5c0,0.5-0.1,1-0.2,1.7l-0.5,2.2
	c-0.2,0.7-0.2,1.3-0.2,1.7c0,0.3,0.1,0.7,0.2,1.2h-1.6C69.4,87.5,69.3,87.2,69.3,86.7L69.3,86.7z M69.8,83.3
	c-0.2,0.1-0.4,0.2-0.7,0.2c-0.2,0-0.7,0.1-1.2,0.1c-0.9,0.1-1.5,0.2-1.9,0.3c-0.4,0.1-0.6,0.3-0.8,0.6c-0.2,0.3-0.3,0.6-0.3,0.9
	c0,0.4,0.1,0.8,0.4,1.1c0.3,0.3,0.7,0.4,1.3,0.4c0.5,0,1-0.1,1.5-0.4c0.5-0.3,0.8-0.6,1.1-1.1C69.5,84.8,69.7,84.2,69.8,83.3
	L69.8,83.3z M77.7,87.8l1.9-9H81l-0.3,1.6c0.6-0.6,1.2-1.1,1.7-1.4c0.5-0.3,1.1-0.4,1.6-0.4c0.7,0,1.3,0.2,1.7,0.6
	c0.4,0.4,0.6,0.9,0.6,1.6c0,0.3-0.1,0.9-0.2,1.6L85,87.8h-1.5l1.2-5.7c0.1-0.6,0.2-1,0.2-1.2c0-0.3-0.1-0.5-0.3-0.7
	c-0.2-0.2-0.5-0.3-0.9-0.3c-0.8,0-1.5,0.3-2.1,0.9c-0.6,0.6-1.1,1.5-1.4,2.9l-0.9,4.2H77.7L77.7,87.8z M93.5,86.7
	c-0.5,0.5-1,0.8-1.5,1c-0.5,0.2-1,0.3-1.6,0.3c-0.8,0-1.5-0.2-2-0.7c-0.5-0.5-0.8-1.1-0.8-1.9c0-0.5,0.1-1,0.3-1.3
	c0.2-0.4,0.5-0.7,0.9-0.9c0.4-0.2,0.8-0.4,1.4-0.5c0.3-0.1,1-0.1,2-0.2c1,0,1.7-0.1,2.1-0.3c0.1-0.4,0.2-0.8,0.2-1
	c0-0.4-0.1-0.6-0.4-0.8c-0.4-0.3-0.9-0.4-1.6-0.4c-0.6,0-1.2,0.1-1.6,0.4c-0.4,0.3-0.7,0.7-0.9,1.2l-1.6-0.1
	c0.3-0.9,0.8-1.6,1.5-2.1c0.7-0.5,1.6-0.7,2.6-0.7c1.1,0,2,0.3,2.7,0.8c0.5,0.4,0.7,0.9,0.7,1.5c0,0.5-0.1,1-0.2,1.7l-0.5,2.2
	c-0.2,0.7-0.2,1.3-0.2,1.7c0,0.3,0.1,0.7,0.2,1.2h-1.6C93.6,87.5,93.5,87.2,93.5,86.7L93.5,86.7z M94.1,83.3
	c-0.2,0.1-0.4,0.2-0.7,0.2c-0.2,0-0.7,0.1-1.2,0.1c-0.9,0.1-1.5,0.2-1.9,0.3c-0.4,0.1-0.6,0.3-0.8,0.6c-0.2,0.3-0.3,0.6-0.3,0.9
	c0,0.4,0.1,0.8,0.4,1.1c0.3,0.3,0.7,0.4,1.3,0.4c0.5,0,1-0.1,1.5-0.4c0.5-0.3,0.8-0.6,1.1-1.1C93.7,84.8,93.9,84.2,94.1,83.3
	L94.1,83.3z M97.1,87.8l1.9-9h1.4l-0.4,1.8c0.5-0.7,0.9-1.2,1.4-1.5c0.4-0.3,0.9-0.5,1.4-0.5c0.3,0,0.7,0.1,1.1,0.3l-0.6,1.4
	c-0.3-0.2-0.6-0.3-0.9-0.3c-0.5,0-1.1,0.3-1.7,0.9c-0.6,0.6-1,1.7-1.3,3.2l-0.8,3.6H97.1L97.1,87.8z M103.1,84.4
	c0,0.7,0.2,1.4,0.5,1.9c0.3,0.5,0.7,1,1.3,1.3c0.6,0.3,1.2,0.4,1.9,0.4c0.9,0,1.7-0.2,2.4-0.7c0.8-0.5,1.4-1.2,1.8-2.1
	c0.4-0.9,0.6-1.9,0.6-2.9c0-1.2-0.3-2.1-1-2.8c-0.7-0.7-1.5-1-2.6-1c-1.4,0-2.5,0.5-3.4,1.4C103.7,81.2,103.1,82.6,103.1,84.4
	L103.1,84.4z M104.7,84.3c0-0.5,0.1-1,0.2-1.6c0.2-0.6,0.4-1.1,0.7-1.5c0.3-0.4,0.7-0.8,1.1-1c0.4-0.2,0.8-0.3,1.3-0.3
	c0.6,0,1.1,0.2,1.5,0.7c0.4,0.5,0.6,1.1,0.6,1.9c0,0.5-0.1,1.1-0.3,1.6c-0.1,0.4-0.3,0.8-0.5,1.1c-0.2,0.3-0.4,0.7-0.7,0.9
	c-0.3,0.3-0.6,0.5-0.9,0.6c-0.3,0.1-0.6,0.2-1,0.2c-0.6,0-1.1-0.2-1.6-0.7C104.9,85.8,104.7,85.1,104.7,84.3L104.7,84.3z
	 M118.6,86.5c-0.9,1-1.8,1.5-2.8,1.5c-0.9,0-1.6-0.3-2.1-0.9c-0.6-0.6-0.9-1.5-0.9-2.8c0-1.1,0.2-2.1,0.7-3c0.5-0.9,1-1.6,1.7-2
	c0.7-0.5,1.4-0.7,2-0.7c1.1,0,2,0.5,2.5,1.6l1-4.9h1.5l-2.6,12.5h-1.4L118.6,86.5L118.6,86.5z M114.4,84.1c0,0.6,0.1,1.1,0.2,1.5
	c0.1,0.4,0.3,0.7,0.6,0.9c0.3,0.2,0.7,0.4,1.1,0.4c0.7,0,1.3-0.4,1.9-1.1c0.8-1,1.1-2.2,1.1-3.6c0-0.7-0.2-1.3-0.6-1.7
	c-0.4-0.4-0.8-0.6-1.4-0.6c-0.4,0-0.7,0.1-1,0.2c-0.3,0.2-0.6,0.4-0.9,0.8c-0.3,0.4-0.5,0.9-0.8,1.5
	C114.5,83.1,114.4,83.6,114.4,84.1L114.4,84.1z M122.5,84.4c0-1.8,0.5-3.2,1.6-4.4c0.9-1,2-1.4,3.4-1.4c1.1,0,2,0.3,2.6,1
	c0.7,0.7,1,1.6,1,2.8c0,1-0.2,2-0.6,2.9c-0.4,0.9-1,1.6-1.8,2.1c-0.8,0.5-1.6,0.7-2.4,0.7c-0.7,0-1.3-0.1-1.9-0.4
	c-0.6-0.3-1-0.7-1.3-1.3C122.7,85.8,122.5,85.1,122.5,84.4L122.5,84.4z M124,84.3c0,0.9,0.2,1.5,0.6,1.9c0.4,0.4,0.9,0.7,1.6,0.7
	c0.3,0,0.7-0.1,1-0.2c0.3-0.1,0.6-0.3,0.9-0.6c0.3-0.3,0.5-0.6,0.7-0.9c0.2-0.3,0.4-0.7,0.5-1.1c0.2-0.6,0.3-1.1,0.3-1.6
	c0-0.8-0.2-1.4-0.6-1.9c-0.4-0.4-0.9-0.7-1.5-0.7c-0.5,0-0.9,0.1-1.3,0.3c-0.4,0.2-0.8,0.6-1.1,1c-0.3,0.4-0.6,1-0.7,1.5
	C124.1,83.3,124,83.8,124,84.3L124,84.3z M133.6,87.8l-0.9-9h1.5l0.4,4.1l0.2,2.3c0,0.2,0,0.5,0,1c0.2-0.6,0.3-1,0.4-1.3
	c0.1-0.3,0.3-0.7,0.6-1.3l2.2-4.7h1.7l0.3,4.5c0,0.7,0.1,1.6,0.1,2.7c0.3-0.8,0.7-1.8,1.4-3.2l1.9-4.1h1.5l-4.4,9h-1.6l-0.3-5.3
	c0-0.3,0-1-0.1-1.9c-0.2,0.6-0.5,1.3-0.8,2l-2.4,5.3H133.6L133.6,87.8z M151.1,84.8c-0.3,0.7-0.7,1.2-1.2,1.5
	c-0.5,0.3-1,0.5-1.6,0.5c-0.6,0-1-0.2-1.4-0.7c-0.4-0.4-0.6-1.1-0.6-1.9c0-0.1,0-0.3,0-0.5h6.6c0.1-0.5,0.1-0.9,0.1-1.4
	c0-1.2-0.3-2.1-1-2.7c-0.6-0.7-1.5-1-2.6-1c-0.8,0-1.6,0.2-2.4,0.7c-0.7,0.5-1.3,1.1-1.8,2.1c-0.5,0.9-0.7,1.9-0.7,2.9
	c0,0.8,0.1,1.4,0.4,2c0.3,0.6,0.7,1,1.3,1.3c0.6,0.3,1.2,0.5,1.8,0.5c1.1,0,2-0.3,2.8-1c0.8-0.7,1.3-1.4,1.5-2.1L151.1,84.8
	L151.1,84.8z M146.6,82.5c0.3-0.9,0.7-1.6,1.2-2c0.5-0.5,1.1-0.7,1.8-0.7c0.6,0,1.1,0.2,1.5,0.6c0.4,0.4,0.6,1,0.6,1.8
	c0,0.1,0,0.2,0,0.3H146.6L146.6,82.5z M156.4,77.1l0.4-1.7h1.5l-0.4,1.7H156.4L156.4,77.1z M151.5,91.2l0.3-1.3
	c0.4,0.1,0.7,0.1,0.9,0.1c0.3,0,0.6-0.1,0.8-0.3c0.2-0.2,0.4-0.8,0.6-1.8l1.9-9.1h1.5l-2,9.4c-0.2,1.2-0.5,2-0.8,2.4
	c-0.4,0.6-1,0.9-1.8,0.9C152.5,91.4,152.1,91.4,151.5,91.2L151.5,91.2z M163,84.8l1.5-0.1c0,0.4,0.1,0.8,0.2,1.1
	c0.1,0.3,0.4,0.6,0.8,0.8c0.4,0.2,0.8,0.3,1.3,0.3c0.7,0,1.2-0.1,1.5-0.4c0.3-0.3,0.5-0.6,0.5-1c0-0.3-0.1-0.5-0.3-0.8
	c-0.2-0.2-0.7-0.5-1.5-0.9c-0.8-0.4-1.3-0.6-1.6-0.7c-0.4-0.2-0.7-0.5-0.9-0.8c-0.2-0.3-0.3-0.7-0.3-1.1c0-0.7,0.3-1.3,0.9-1.8
	c0.6-0.5,1.4-0.8,2.4-0.8c1.1,0,2,0.3,2.6,0.8c0.6,0.5,0.9,1.2,0.9,2.1l-1.5,0.1c0-0.5-0.2-1-0.6-1.3c-0.4-0.3-0.9-0.5-1.5-0.5
	c-0.5,0-0.9,0.1-1.2,0.4c-0.3,0.2-0.4,0.5-0.4,0.8s0.1,0.5,0.4,0.7c0.2,0.1,0.6,0.4,1.3,0.7c1.2,0.5,1.9,0.9,2.2,1.2
	c0.5,0.5,0.7,1,0.7,1.7c0,0.4-0.1,0.9-0.4,1.3c-0.3,0.4-0.7,0.8-1.3,1c-0.6,0.3-1.2,0.4-2,0.4c-1,0-1.9-0.3-2.7-0.8
	C163.3,86.8,163,85.9,163,84.8L163,84.8z M173.8,77.1l0.4-1.7h1.5l-0.4,1.7H173.8L173.8,77.1z M171.5,87.8l1.9-9h1.5l-1.9,9H171.5
	L171.5,87.8z M182.1,84.8l1.5,0.2c-0.2,0.7-0.7,1.4-1.5,2.1c-0.8,0.7-1.7,1-2.8,1c-0.7,0-1.3-0.2-1.8-0.5c-0.6-0.3-1-0.8-1.3-1.3
	c-0.3-0.6-0.4-1.3-0.4-2c0-1,0.2-1.9,0.7-2.9c0.5-0.9,1-1.6,1.8-2.1c0.7-0.4,1.5-0.7,2.4-0.7c1.1,0,1.9,0.3,2.6,1
	c0.6,0.7,1,1.6,1,2.7c0,0.4,0,0.9-0.1,1.4h-6.6c0,0.2,0,0.3,0,0.5c0,0.8,0.2,1.5,0.6,1.9c0.4,0.4,0.9,0.7,1.4,0.7
	c0.5,0,1-0.2,1.6-0.5C181.4,85.9,181.8,85.4,182.1,84.8L182.1,84.8z M177.6,82.5h5.1c0-0.2,0-0.3,0-0.3c0-0.8-0.2-1.4-0.6-1.8
	c-0.4-0.4-0.9-0.6-1.5-0.6c-0.7,0-1.3,0.2-1.8,0.7C178.3,80.9,177.9,81.6,177.6,82.5L177.6,82.5z M191.4,84.5l1.5,0.2
	c-0.4,1.1-0.9,2-1.6,2.5c-0.7,0.5-1.5,0.8-2.4,0.8c-1,0-1.8-0.3-2.4-1c-0.6-0.6-0.9-1.5-0.9-2.7c0-1,0.2-2,0.6-2.9
	c0.4-1,1-1.7,1.7-2.2c0.7-0.5,1.6-0.7,2.5-0.7c1,0,1.7,0.3,2.3,0.8c0.6,0.5,0.9,1.3,0.9,2.2l-1.5,0.1c0-0.6-0.2-1-0.5-1.3
	c-0.3-0.3-0.8-0.5-1.3-0.5c-0.6,0-1.2,0.2-1.6,0.6c-0.5,0.4-0.8,1-1.1,1.8c-0.3,0.8-0.4,1.6-0.4,2.3c0,0.8,0.2,1.3,0.5,1.7
	c0.3,0.4,0.8,0.6,1.3,0.6c0.5,0,1-0.2,1.4-0.6C190.7,85.9,191.1,85.3,191.4,84.5L191.4,84.5z M196,77.1l0.4-1.7h1.5l-0.4,1.7H196
	L196,77.1z M193.8,87.8l1.9-9h1.5l-1.9,9H193.8L193.8,87.8z M202.4,87.8l2.6-12.5h1.5L204,87.8H202.4L202.4,87.8z M208.6,77.1
	l0.4-1.7h1.5l-0.4,1.7H208.6L208.6,77.1z M206.3,87.8h1.5l1.9-9h-1.5L206.3,87.8L206.3,87.8z M210.3,87.8l1.9-9h1.4l-0.3,1.6
	c0.6-0.6,1.2-1.1,1.7-1.4c0.5-0.3,1.1-0.4,1.6-0.4c0.7,0,1.3,0.2,1.7,0.6c0.4,0.4,0.6,0.9,0.6,1.6c0,0.3-0.1,0.9-0.2,1.6l-1.1,5.5
	H216l1.2-5.7c0.1-0.6,0.2-1,0.2-1.2c0-0.3-0.1-0.5-0.3-0.7c-0.2-0.2-0.5-0.3-0.9-0.3c-0.8,0-1.5,0.3-2.1,0.9
	c-0.6,0.6-1.1,1.5-1.4,2.9l-0.9,4.2H210.3L210.3,87.8z M222.1,77.1l0.4-1.7h1.5l-0.4,1.7H222.1L222.1,77.1z M219.9,87.8l1.9-9h1.5
	l-1.9,9H219.9L219.9,87.8z M226,77.1l0.4-1.7h1.5l-0.4,1.7H226L226,77.1z M223.8,87.8l1.9-9h1.5l-1.9,9H223.8L223.8,87.8z
	 M232.5,87.8l2.6-12.5h1.5l-1.6,7.7l4.5-4.3h2l-3.9,3.4l2.3,5.7h-1.7l-1.8-4.6l-1.9,1.6l-0.6,3H232.5L232.5,87.8z M241.5,84.4
	c0,0.7,0.2,1.4,0.5,1.9c0.3,0.5,0.7,1,1.3,1.3c0.6,0.3,1.2,0.4,1.9,0.4c0.9,0,1.7-0.2,2.4-0.7c0.8-0.5,1.4-1.2,1.8-2.1
	c0.4-0.9,0.6-1.9,0.6-2.9c0-1.2-0.3-2.1-1-2.8c-0.7-0.7-1.5-1-2.6-1c-1.4,0-2.5,0.5-3.4,1.4C242,81.2,241.5,82.6,241.5,84.4
	L241.5,84.4z M243,84.3c0-0.5,0.1-1,0.2-1.6c0.2-0.6,0.4-1.1,0.7-1.5c0.3-0.4,0.7-0.8,1.1-1c0.4-0.2,0.8-0.3,1.3-0.3
	c0.6,0,1.1,0.2,1.5,0.7c0.4,0.5,0.6,1.1,0.6,1.9c0,0.5-0.1,1.1-0.3,1.6c-0.1,0.4-0.3,0.8-0.5,1.1c-0.2,0.3-0.4,0.7-0.7,0.9
	c-0.3,0.3-0.6,0.5-0.9,0.6c-0.3,0.1-0.6,0.2-1,0.2c-0.6,0-1.1-0.2-1.6-0.7C243.2,85.8,243,85.1,243,84.3L243,84.3z M250.8,87.8
	l2.6-12.5h1.5l-2.6,12.5H250.8L250.8,87.8z M261.4,84.8l1.5,0.2c-0.2,0.7-0.7,1.4-1.5,2.1c-0.8,0.7-1.7,1-2.8,1
	c-0.7,0-1.3-0.2-1.8-0.5c-0.6-0.3-1-0.8-1.3-1.3c-0.3-0.6-0.4-1.3-0.4-2c0-1,0.2-1.9,0.7-2.9c0.5-0.9,1-1.6,1.8-2.1
	c0.7-0.4,1.5-0.7,2.4-0.7c1.1,0,1.9,0.3,2.6,1c0.6,0.7,1,1.6,1,2.7c0,0.4,0,0.9-0.1,1.4h-6.6c0,0.2,0,0.3,0,0.5
	c0,0.8,0.2,1.5,0.6,1.9c0.4,0.4,0.9,0.7,1.4,0.7c0.5,0,1-0.2,1.6-0.5C260.7,85.9,261.1,85.4,261.4,84.8L261.4,84.8z M256.9,82.5h5.1
	c0-0.2,0-0.3,0-0.3c0-0.8-0.2-1.4-0.6-1.8c-0.4-0.4-0.9-0.6-1.5-0.6c-0.7,0-1.3,0.2-1.8,0.7C257.6,80.9,257.2,81.6,256.9,82.5
	L256.9,82.5z M266.6,77.1l0.4-1.7h1.5l-0.4,1.7H266.6L266.6,77.1z M261.8,91.2c0.6,0.1,1.1,0.2,1.5,0.2c0.8,0,1.4-0.3,1.8-0.9
	c0.3-0.4,0.6-1.2,0.8-2.4l2-9.4h-1.5l-1.9,9.1c-0.2,1-0.4,1.6-0.6,1.8c-0.2,0.2-0.5,0.3-0.8,0.3c-0.3,0-0.6,0-0.9-0.1L261.8,91.2
	L261.8,91.2z M268.6,84.4c0-1.8,0.5-3.2,1.6-4.4c0.9-1,2-1.4,3.4-1.4c1.1,0,2,0.3,2.6,1c0.7,0.7,1,1.6,1,2.8c0,1-0.2,2-0.6,2.9
	c-0.4,0.9-1,1.6-1.8,2.1c-0.8,0.5-1.6,0.7-2.4,0.7c-0.7,0-1.3-0.1-1.9-0.4c-0.6-0.3-1-0.7-1.3-1.3C268.8,85.8,268.6,85.1,268.6,84.4
	L268.6,84.4z M270.1,84.3c0,0.9,0.2,1.5,0.6,1.9c0.4,0.4,0.9,0.7,1.6,0.7c0.3,0,0.7-0.1,1-0.2c0.3-0.1,0.6-0.3,0.9-0.6
	c0.3-0.3,0.5-0.6,0.7-0.9c0.2-0.3,0.4-0.7,0.5-1.1c0.2-0.6,0.3-1.1,0.3-1.6c0-0.8-0.2-1.4-0.6-1.9c-0.4-0.4-0.9-0.7-1.5-0.7
	c-0.5,0-0.9,0.1-1.3,0.3c-0.4,0.2-0.8,0.6-1.1,1c-0.3,0.4-0.6,1-0.7,1.5C270.2,83.3,270.1,83.8,270.1,84.3L270.1,84.3z M279.7,87.8
	l-0.9-9h1.5l0.4,4.1l0.2,2.3c0,0.2,0,0.5,0,1c0.2-0.6,0.3-1,0.4-1.3c0.1-0.3,0.3-0.7,0.6-1.3l2.2-4.7h1.7l0.3,4.5
	c0,0.7,0.1,1.6,0.1,2.7c0.3-0.8,0.7-1.8,1.4-3.2l1.9-4.1h1.5l-4.4,9H285l-0.3-5.3c0-0.3,0-1-0.1-1.9c-0.2,0.6-0.5,1.3-0.8,2
	l-2.4,5.3H279.7L279.7,87.8z M290,91.3c0.3,0.1,0.7,0.2,1,0.2c0.6,0,1.1-0.2,1.5-0.5c0.4-0.3,0.9-1,1.5-2l5.8-10.2h-1.6l-4,7.3
	c-0.1-0.9-0.2-1.8-0.3-2.7l-0.7-4.6h-1.5l1.5,9.1l-0.5,0.9c-0.3,0.5-0.6,0.9-0.8,1.1c-0.2,0.1-0.4,0.2-0.8,0.2c-0.3,0-0.6,0-0.9-0.1
	L290,91.3L290,91.3z M305.5,84.5l1.5,0.2c-0.4,1.1-0.9,2-1.6,2.5c-0.7,0.5-1.5,0.8-2.4,0.8c-1,0-1.8-0.3-2.4-1
	c-0.6-0.6-0.9-1.5-0.9-2.7c0-1,0.2-2,0.6-2.9c0.4-1,1-1.7,1.7-2.2c0.7-0.5,1.6-0.7,2.5-0.7c1,0,1.7,0.3,2.3,0.8
	c0.6,0.5,0.9,1.3,0.9,2.2l-1.5,0.1c0-0.6-0.2-1-0.5-1.3c-0.3-0.3-0.8-0.5-1.3-0.5c-0.6,0-1.2,0.2-1.6,0.6c-0.5,0.4-0.8,1-1.1,1.8
	c-0.3,0.8-0.4,1.6-0.4,2.3c0,0.8,0.2,1.3,0.5,1.7c0.3,0.4,0.8,0.6,1.3,0.6c0.5,0,1-0.2,1.4-0.6C304.9,85.9,305.3,85.3,305.5,84.5
	L305.5,84.5z M308,87.8l2.6-12.5h1.5l-1,4.8c0.6-0.6,1.1-1,1.6-1.2c0.5-0.2,1-0.4,1.5-0.4c0.7,0,1.3,0.2,1.7,0.6
	c0.4,0.4,0.6,0.9,0.6,1.6c0,0.3-0.1,0.9-0.3,1.7l-1.1,5.3h-1.5l1.1-5.5c0.2-0.8,0.2-1.3,0.2-1.5c0-0.3-0.1-0.5-0.3-0.7
	c-0.2-0.2-0.5-0.3-0.9-0.3c-0.6,0-1.1,0.1-1.6,0.4c-0.5,0.3-0.9,0.7-1.2,1.2c-0.3,0.5-0.5,1.3-0.8,2.5l-0.8,3.9H308z"/>
<path class="st1" d="M0,49.6V33h4.7c1.6,0,2.8,0.2,3.6,0.7c1.4,0.8,2.1,2.2,2.1,4.4c0,2.2-0.7,3.7-2.1,4.4c-0.8,0.4-2.3,0.6-4.5,0.6
	v6.4H0L0,49.6z M3.9,40.2H4c1.1,0,1.8-0.2,2.2-0.7c0.2-0.3,0.3-0.8,0.3-1.7c0-0.8-0.2-1.3-0.6-1.6C5.8,36.1,5.4,36,4.9,36
	c-0.1,0-0.2,0-0.3,0c-0.1,0-0.2,0-0.2,0H3.9V40.2L3.9,40.2z M12.1,49.6V33H16v6.6l2.9-6.6h4l-3.5,7.3l3.7,9.3H19l-2.1-5.8L16,45.5
	v4.1H12.1L12.1,49.6z M24.6,49.6V33h4.7c1.6,0,2.8,0.2,3.6,0.7c1.4,0.8,2.1,2.2,2.1,4.4c0,2.2-0.7,3.7-2.1,4.4
	c-0.8,0.4-2.3,0.6-4.5,0.6v6.4H24.6L24.6,49.6z M28.4,40.2h0.2c1.1,0,1.8-0.2,2.2-0.7c0.2-0.3,0.3-0.8,0.3-1.7
	c0-0.8-0.2-1.3-0.6-1.6c-0.2-0.2-0.6-0.3-1.1-0.3c-0.1,0-0.2,0-0.3,0c-0.1,0-0.2,0-0.2,0h-0.4V40.2L28.4,40.2z M43.8,49.6V33h4.7
	c1.6,0,2.8,0.2,3.6,0.7c1.4,0.8,2.1,2.2,2.1,4.4c0,2.2-0.7,3.7-2.1,4.4c-0.8,0.4-2.3,0.6-4.5,0.6v6.4H43.8L43.8,49.6z M47.7,40.2
	h0.2c1.1,0,1.8-0.2,2.2-0.7c0.2-0.3,0.3-0.8,0.3-1.7c0-0.8-0.2-1.3-0.6-1.6c-0.2-0.2-0.6-0.3-1.1-0.3c-0.1,0-0.2,0-0.3,0
	c-0.1,0-0.2,0-0.2,0h-0.4V40.2L47.7,40.2z M55.8,44.8v-7.3c0-1.8,0.6-3.1,1.7-3.9c0.9-0.7,2.1-1,3.7-1c1.5,0,2.7,0.4,3.6,1.1
	c1.1,0.8,1.6,2.1,1.6,3.8v7.3c0,1.7-0.4,3-1.2,3.8C64.3,49.5,62.9,50,61,50c-1.9,0-3.2-0.5-4.1-1.5C56.2,47.7,55.8,46.4,55.8,44.8
	L55.8,44.8z M59.7,37.2v0.4v7.3c0,0.6,0.1,1.1,0.4,1.5c0.2,0.4,0.6,0.6,1.1,0.6c0.5,0,0.8-0.2,1-0.6c0.2-0.4,0.3-1,0.3-1.7v-7.1
	v-0.4c0-0.6-0.1-1-0.4-1.2c-0.3-0.2-0.6-0.4-1-0.4c-0.4,0-0.7,0.1-0.9,0.4C59.9,36.2,59.7,36.6,59.7,37.2L59.7,37.2z M68,49.6V33H72
	v13.3h4.7v3.3H68L68,49.6z M77.3,44h3.6v1.3c0,0.5,0.1,0.9,0.4,1.2c0.3,0.3,0.6,0.4,1,0.4c1,0,1.5-0.6,1.5-1.7
	c0-0.7-0.5-1.4-1.6-2.1c-1.8-1.1-2.8-1.8-3-2.1c-1.1-1-1.6-2.3-1.6-3.8v-0.4c0.2-1.4,0.6-2.5,1.4-3.2c0.8-0.7,1.9-1.1,3.4-1.1
	c1.4,0,2.6,0.4,3.5,1.1c1,0.9,1.6,2.2,1.6,3.9V38h-3.5c0-0.9-0.1-1.5-0.4-1.8c-0.2-0.4-0.6-0.5-1.1-0.5c-0.3,0-0.6,0.1-0.8,0.2
	c-0.3,0.2-0.4,0.6-0.5,1.1c0,0.7,0.5,1.4,1.6,2.1c1.9,1.2,2.9,1.8,3,1.9c1.1,0.9,1.6,2,1.6,3.2v0.7c0,1.9-0.5,3.2-1.5,4.1
	c-0.8,0.7-2,1.1-3.6,1.1c-1.4,0-2.5-0.3-3.4-1c-1-0.7-1.5-1.8-1.5-3.1V44L77.3,44z M89,49.6V33h3.9v6.6l2.9-6.6h4l-3.5,7.3l3.7,9.3
	h-4.1l-2.1-5.8l-0.9,1.7v4.1H89L89,49.6z M101.4,49.6V33h3.9v16.6H101.4L101.4,49.6z M107.4,49.6V33h8.9v3.3h-5v3.1h4.9v3.3h-4.9
	v3.6h5.3v3.3H107.4L107.4,49.6z M125.6,49.6V33h3.9v13.3h4.7v3.3H125.6L125.6,49.6z M135.6,49.6V33h3.9v16.6H135.6L135.6,49.6z
	 M141.6,49.6V33h4l3,9.3h0.1l-0.4-9.3h3.7v16.5h-4l-3-9.3l0,0l0.4,9.2H141.6L141.6,49.6z M154,49.6V33h3.9v16.6H154L154,49.6z
	 M160.1,49.6V33h8.9v3.3h-5v3.1h4.9v3.3h-4.9v3.6h5.3v3.3H160.1L160.1,49.6z M178.4,49.6V33h3.9v6.6l2.9-6.6h4l-3.5,7.3l3.7,9.3
	h-4.1l-2.1-5.8l-0.9,1.7v4.1H178.4L178.4,49.6z M190.5,44.8v-7.3c0-1.8,0.6-3.1,1.7-3.9c0.9-0.7,2.1-1,3.7-1c1.5,0,2.7,0.4,3.6,1.1
	c1.1,0.8,1.6,2.1,1.6,3.8v7.3c0,1.7-0.4,3-1.2,3.8c-0.9,0.9-2.2,1.3-4.2,1.3c-1.9,0-3.2-0.5-4.1-1.5
	C190.9,47.7,190.5,46.4,190.5,44.8L190.5,44.8z M194.4,37.2v0.4v7.3c0,0.6,0.1,1.1,0.4,1.5c0.2,0.4,0.6,0.6,1.1,0.6
	c0.5,0,0.8-0.2,1-0.6c0.2-0.4,0.3-1,0.3-1.7v-7.1v-0.4c0-0.6-0.1-1-0.4-1.2c-0.3-0.2-0.6-0.4-1-0.4c-0.4,0-0.7,0.1-0.9,0.4
	C194.6,36.2,194.4,36.6,194.4,37.2L194.4,37.2z M202.7,49.6V33h3.9v13.3h4.7v3.3H202.7L202.7,49.6z M212.7,49.6V33h8.9v3.3h-5v3.1
	h4.9v3.3h-4.9v3.6h5.3v3.3H212.7L212.7,49.6z M227.5,33h3.9v12.6v0.4c0,1.2-0.3,2.2-1,2.9c-0.7,0.7-1.6,1.1-2.8,1.1
	c-1.5,0-2.7-0.4-3.5-1.1c-0.8-0.7-1.2-1.7-1.2-3V44h3.1v2.4c0,0.2,0.1,0.4,0.2,0.4c0.1,0.1,0.3,0.1,0.6,0.1c0.3,0,0.5,0,0.6-0.1
	c0.1-0.1,0.2-0.2,0.2-0.4V33L227.5,33z M233.4,44.8v-7.3c0-1.8,0.6-3.1,1.7-3.9c0.9-0.7,2.1-1,3.7-1c1.5,0,2.7,0.4,3.6,1.1
	c1.1,0.8,1.6,2.1,1.6,3.8v7.3c0,1.7-0.4,3-1.2,3.8c-0.9,0.9-2.2,1.3-4.2,1.3c-1.9,0-3.2-0.5-4.1-1.5
	C233.7,47.7,233.4,46.4,233.4,44.8L233.4,44.8z M237.2,37.2v0.4v7.3c0,0.6,0.1,1.1,0.4,1.5c0.2,0.4,0.6,0.6,1.1,0.6
	c0.5,0,0.8-0.2,1-0.6c0.2-0.4,0.3-1,0.3-1.7v-7.1v-0.4c0-0.6-0.1-1-0.4-1.2c-0.3-0.2-0.6-0.4-1-0.4c-0.4,0-0.7,0.1-0.9,0.4
	C237.4,36.2,237.3,36.6,237.2,37.2L237.2,37.2z M247.8,49.6L245,33h3.7l1.1,11.6l0,0l1.6-11.6h3.7l1.5,11.6l0,0l1.3-11.6h3.7
	L259,49.6h-4.4l-1.2-11.6l-1.3,11.6H247.8L247.8,49.6z M262.9,49.6V33h8.9v3.3h-5v3.1h4.9v3.3h-4.9v3.6h5.3v3.3H262.9L262.9,49.6z
	 M280.6,44h3.6v1.3c0,0.5,0.1,0.9,0.4,1.2c0.3,0.3,0.6,0.4,1,0.4c1,0,1.5-0.6,1.5-1.7c0-0.7-0.5-1.4-1.6-2.1c-1.8-1.1-2.8-1.8-3-2.1
	c-1.1-1-1.6-2.3-1.6-3.8v-0.4c0.2-1.4,0.6-2.5,1.4-3.2c0.8-0.7,1.9-1.1,3.4-1.1c1.4,0,2.6,0.4,3.5,1.1c1,0.9,1.6,2.2,1.6,3.9V38
	h-3.5c0-0.9-0.1-1.5-0.4-1.8c-0.2-0.4-0.6-0.5-1.1-0.5c-0.3,0-0.6,0.1-0.8,0.2c-0.3,0.2-0.4,0.6-0.5,1.1c0,0.7,0.5,1.4,1.6,2.1
	c1.9,1.2,2.9,1.8,3,1.9c1.1,0.9,1.6,2,1.6,3.2v0.7c0,1.9-0.5,3.2-1.5,4.1c-0.8,0.7-2,1.1-3.6,1.1c-1.4,0-2.5-0.3-3.4-1
	c-1-0.7-1.5-1.8-1.5-3.1V44L280.6,44z M293.1,49.6v-3.7h3.7v3.7H293.1L293.1,49.6z M298.8,49.6l3.6-16.5h4.7l3.6,16.5h-3.9l-0.5-3.2
	h-3.1l-0.5,3.2H298.8L298.8,49.6z M303.6,43.5h2.2l-1.1-7.4L303.6,43.5L303.6,43.5z M312.7,49.6v-3.7h3.7v3.7H312.7L312.7,49.6z
	 M154,20.4l0.4-0.2h-2.8c-0.2,0.1-0.5,0.3-0.7,0.4l-0.8,0.4c-0.3,0.2-0.6,0.3-1,0.4l-1.5,0.5l1.6-0.3l0.7-0.1l0.7-0.1l0.7-0.2
	l0.6-0.2l0.6-0.2l0.6-0.2l0.5-0.2L154,20.4L154,20.4z M165,1.1L165,1.1c0-0.1,0-0.1-0.1-0.2c0,0-0.1-0.1-0.1-0.1
	c0,0-0.1-0.1-0.1-0.1c-0.1-0.1-0.1-0.1-0.2-0.1c-0.1,0-0.1-0.1-0.2-0.1c-0.1,0-0.2-0.1-0.3-0.1c-0.1,0-0.1-0.1-0.2-0.1
	c-0.1,0-0.2-0.1-0.3-0.1c-0.1,0-0.2-0.1-0.3-0.1h-10.4c-0.1,0-0.2,0-0.2,0c-0.2,0-0.3,0.1-0.5,0.1c-0.1,0-0.2,0.1-0.2,0.1
	c-0.1,0-0.2,0.1-0.2,0.1c-0.1,0-0.2,0.1-0.2,0.2l-0.1,0.1c0,0-0.1,0.1-0.1,0.1l0,0l-0.1,0.1l0,0.1l0,0.1l0,0l0,0l0,0.1l-0.1,3.7
	l5.7,2.2v0.3h3V7.1l5.7-2.2L165,1.1L165,1.1L165,1.1z M188,8.4c0.1-0.1,0.3-0.2,0.4-0.3l0.7-0.6l0.3-0.3c-0.8,0-1.7,0.1-2.5,0.1
	l-3.8,0.1l-0.6,0l-0.6,0l-0.6,0l-0.6,0.1l-0.6,0.1c-0.3,0-0.5,0.1-0.8,0.1l-0.5,0.1L178.3,8l-0.5,0.2l-0.2,0.1l-0.4,0.2l-0.7,0.4
	l0.2,0l1.2-0.2l1.4-0.1c0.5,0,0.9-0.1,1.4-0.1l0.3,0c0.7,0,1.3,0,2,0c1,0,2,0,3,0C186.7,8.3,187.3,8.4,188,8.4L188,8.4z M175.6,10.4
	l-0.2,0.4l-0.3,0.7c0.4,0,0.7-0.1,1.1-0.1l1-0.1l1.6-0.1c0.8,0,1.5,0,2.3,0l2.7,0.1l1.6,0.1c0.2-0.2,0.5-0.3,0.7-0.5
	c0.1-0.1,0.1-0.1,0.2-0.2l0.4-0.4c0.3-0.3,0.6-0.7,0.9-1.1c-1.3-0.1-2.7-0.1-4-0.1c-0.6,0-1.1,0-1.7,0c-0.5,0-1.1,0-1.6,0.1
	l-1.3,0.1l-0.8,0.1l-0.6,0.1l-0.6,0.1l-0.6,0.1l-0.3,0.1C175.8,9.9,175.7,10.1,175.6,10.4L175.6,10.4z M175.7,14.5
	c1.2,0,2.4,0,3.6,0c0.8,0,1.6,0.1,2.4,0.1l0.1-0.1l0.3-0.2l0.3-0.2l0.3-0.2l0.3-0.2l0.3-0.2l0.3-0.2l0.2-0.2l0.2-0.2l0.2-0.3
	l0.4-0.6l-0.2,0c-1.1,0-2.2-0.1-3.3-0.1c-1.2,0-2.3,0-3.5,0.1l-1.8,0.1l-1.2,0.1l-0.4,0.7l-1.2,1.6C174,14.5,174.8,14.5,175.7,14.5
	L175.7,14.5z M175.9,18.4l0.7-0.2l0.5-0.2l0.4-0.2l0.4-0.2l0.4-0.2l0.4-0.2l0.2-0.1l0.3-0.3l0.3-0.3l0.1-0.1l0.3-0.3l0.3-0.3
	c0.1-0.1,0.2-0.3,0.3-0.4c0,0,0.1-0.1,0.1-0.2c-1,0-2.1-0.1-3.1-0.1l-1.3,0c-0.1,0-0.2,0-0.2,0c-0.9,0-1.9,0.1-2.8,0.2
	c-0.2,0-0.4,0-0.5,0.1l0,1.9l0,0.3c0.9,0.4,1.6,0.6,2.9,0.8L175.9,18.4L175.9,18.4z M204.4,5c-0.2,0.3-0.5,0.5-0.7,0.8
	c-0.2,0.2-0.4,0.4-0.6,0.5l-0.3,0.2l-0.3,0.2l-0.3,0.2L201.9,7l-0.1,0.1l-3.9,1.2c-0.2,0-0.3,0.1-0.5,0.1c-0.5,0.1-1.1,0.3-1.6,0.4
	L194.9,9L194,9.2l-0.9,0.2l-0.9,0.2l-0.9,0.1l-0.9,0.1l-0.9,0.1l-0.9,0.1l-0.9,0.1l0.2-0.3l0.3-0.5l0.2-0.3l1.2-1l0.3-0.3
	c0.2-0.2,0.3-0.4,0.5-0.5l1.9-0.1l1.4-0.1l1.3-0.1l1.2-0.1l1.2-0.2l1.1-0.2l1-0.2l0.9-0.2l0.9-0.2l0.8-0.2l0.7-0.2l0.7-0.2l0.6-0.2
	l0.3-0.1C204.5,4.8,204.5,4.9,204.4,5L204.4,5z M184.5,13.5c0.3-0.3,0.6-0.7,0.9-1c0.1-0.1,0.2-0.3,0.3-0.5c0.2-0.2,0.5-0.3,0.7-0.5
	l0.2-0.2c0.1-0.1,0.3-0.2,0.4-0.4l0.2-0.2l0.8,0l1-0.1l1-0.1l1-0.1l0.5-0.1l1-0.1l0.9-0.2l0.9-0.2l0.9-0.2l0.9-0.2
	c0.6-0.1,1.1-0.3,1.7-0.4l0.3-0.1l2.9-0.9l-0.1,0.1l-0.4,0.5l-0.4,0.5l-0.4,0.4l-0.4,0.4l-0.5,0.4l-0.5,0.4l-0.5,0.4l-0.5,0.3
	l-0.6,0.3l-0.6,0.3l-0.6,0.3l-0.6,0.3l-0.6,0.2l-0.6,0.2l-0.6,0.2l-0.7,0.2l-0.7,0.2l-0.7,0.1l-0.7,0.1l-0.7,0.1l-0.7,0.1l-0.7,0.1
	l-0.7,0.1l-0.7,0l-0.7,0l-0.7,0l-0.7,0l-0.7,0l-0.3,0C183.9,14.1,184.2,13.8,184.5,13.5L184.5,13.5z M174.7,5.7l0.2-0.1l0.4-0.2
	l0.4-0.2l0.4-0.1l0.2-0.1l0.2-0.1l0.2,0l0.2,0l0.2,0l0.2,0h2l6,0l3.1,0c1.5,0,3-0.1,4.5-0.1c1.5,0,3-0.1,4.5-0.2l1.8-0.1l1.7-0.1
	l1.7-0.1c0.6-0.1,1.2-0.1,1.8-0.2c-0.4,0.2-0.8,0.3-1.3,0.5l-0.5,0.1l-0.5,0.1l-0.5,0.1L201.3,5l-0.6,0.1l-0.6,0.1l-0.6,0.1
	l-0.7,0.1L198,5.6l-0.8,0.1l-0.8,0.1l-0.8,0.1L194.8,6l-0.9,0.1l-1,0.1l-1,0.1l-1.1,0.1l-1.1,0.1l-1.2,0.1l-1.2,0l-1.3,0l-1.4,0
	l-1.4,0l-0.6,0l-0.6,0l-0.6,0l-0.6,0.1L180,6.8l-0.3,0l-0.6,0.1l-0.6,0.1L178,7.2l-0.5,0.2l-0.2,0.1l-0.2,0.1l-0.2,0.1l-0.2,0.1
	l-0.2,0.1L176.3,8l-0.2,0.1l-0.2,0.1l-0.2,0.1l-0.1,0.1l-0.1,0.2l-0.1,0.2L175.3,9l-0.1,0.2L175,9.9c-0.1,0.1-0.1,0.3-0.2,0.4
	l-0.5,1l-0.2,0.3l-0.3,0.5l-0.5,0.9l-0.2,0.3l-0.3,0.5l-0.3,0.3v-3.9l0-0.3l0-0.2l-0.1-0.3l-0.1-0.3l-0.2-0.4L172,8.3l0.4-0.5
	l0.3-0.3l0.3-0.3l0.3-0.3l0.3-0.3l0.2-0.1l0.3-0.3l0.3-0.2L174.7,5.7L174.7,5.7z M194.3,13.7l0.5-0.2l0.5-0.2l0.4-0.2l-0.1,0.2
	l-0.3,0.5l-0.3,0.5l-0.4,0.5l-0.4,0.4l-0.4,0.4l-0.5,0.4l-0.5,0.4l-0.5,0.3l-0.6,0.3l-0.6,0.3l-0.6,0.3l-0.6,0.2l-0.7,0.2l-0.7,0.2
	l-0.7,0.2l-0.7,0.2l-0.7,0.1l-0.8,0.1l-0.8,0.1L184,19l-0.8,0l-0.8,0l-0.8,0l-0.9,0l-0.9,0l-0.9-0.1l-0.9-0.1l-0.7-0.1l0.4-0.2
	l0.4-0.2l0.4-0.2l0.2-0.1l0.4-0.2l0.2-0.1l0.2-0.1l0.2-0.1l0.2-0.2l0.2-0.2l0.2-0.2l0.2-0.2l0.2-0.2l0.3-0.4L181,16l0.2-0.4l1.4-0.7
	c0.3,0,0.6,0,0.9,0c0.6,0,1.3,0,1.9,0l0.9,0l0.9,0l0.9-0.1l0.9-0.1l0.4-0.1l0.9-0.1l0.4-0.1l0.4-0.1l0.4-0.1l0.4-0.1l0.4-0.1
	l0.5-0.1l0.5-0.1l0.5-0.1L194.3,13.7L194.3,13.7z M169.6,20.2l0.2,0l0.2,0l0.2,0l0.2-0.1l0.2-0.1l0.2-0.1l0.2-0.1l0.2-0.1l0.2-0.1
	l0.2-0.2l0.2-0.2L172,19l0.1-0.1l0.1-0.2l0.1-0.2l0,0c0.7,0.3,1.4,0.5,2.2,0.7l-0.1,0.1l-0.2,0.3l-0.2,0.3l-0.2,0.2l-0.2,0.2
	l-0.2,0.2l-0.2,0.2l-0.2,0.2l-0.3,0.2l-0.3,0.1l-0.3,0.1l-0.3,0.1l-0.3,0.1l-0.3,0.1l-0.3,0l-0.3,0l-0.3,0l-0.4,0l-0.4,0l-0.4-0.1
	l-0.4-0.1l-0.4-0.1l-0.4-0.1l-0.4-0.2l-0.4-0.2l-0.5-0.2l-0.5-0.2l-0.2-0.1H169.6L169.6,20.2z M169.7,7.8l-0.1,0h-23.3l-0.1,0
	l-0.1,0l-0.1,0l-0.1,0l-0.1,0l-0.1,0l-0.1,0l-0.1,0l-0.1,0L145.2,8l-0.1,0.1L145,8.2l-0.1,0.1l-0.1,0.1l-0.1,0.1l-0.1,0.1l-0.1,0.1
	l-0.1,0.1l-0.1,0.1l-0.1,0.1l-0.1,0.1L144.3,9l-0.1,0.1l0,0.1l0,0.1l0,0.1l0,0.1l0,0.1l0,0.1l0,0.1l0,0.1l0,0.1v7.2l0,0.1l0,0.1
	l0,0.1l0,0.1l0,0.1l0,0.1l0,0.1l0,0.1l0,0.1l0.1,0.1l0.1,0.1l0.1,0.1l0.1,0.1l0.1,0.1l0.1,0.1l0.1,0.1l0.1,0.1l0.1,0.1l0.1,0.1
	l0.1,0.1l0.1,0.1l0.1,0.1l0.1,0.1l0.1,0l0.1,0l0.1,0l0.1,0l0.1,0l0.1,0l0.1,0l0.1,0l0.1,0h23.3l0.1,0l0.1,0l0.1,0l0.1,0l0.1,0l0.1,0
	l0.1,0l0.1,0l0.1,0l0.1-0.1l0.1-0.1l0.1-0.1l0.1-0.1l0.1-0.1l0.1-0.1l0.1-0.1l0.1-0.1l0.1-0.1l0.1-0.1l0.1-0.1l0.1-0.1l0.1-0.1
	l0.1-0.1l0-0.1l0-0.1l0-0.1l0-0.1l0-0.1l0-0.1l0-0.1l0-0.1l0-0.1v-7.2l0-0.1l0-0.1l0-0.1l0-0.1l0-0.1l0-0.1l0-0.1l0-0.1l0-0.1
	L171.6,9l-0.1-0.1l-0.1-0.1l-0.1-0.1l-0.1-0.1l-0.1-0.1l-0.1-0.1l-0.1-0.1l-0.1-0.1L171,8.2l-0.1-0.1l-0.1-0.1l-0.1-0.1L170.6,8
	l-0.1,0l-0.1,0l-0.1,0l-0.1,0l-0.1,0l-0.1,0l-0.1,0L169.7,7.8L169.7,7.8z M128,8.4c-0.1-0.1-0.3-0.2-0.4-0.3l-0.7-0.6l-0.3-0.3
	c0.8,0,1.7,0.1,2.5,0.1l3.8,0.1l0.6,0l0.6,0l0.6,0l0.6,0.1l0.6,0.1c0.3,0,0.5,0.1,0.8,0.1l0.5,0.1l0.5,0.1l0.5,0.2l0.2,0.1l0.4,0.2
	l0.7,0.4l-0.2,0L138,8.6l-1.4-0.1c-0.5,0-0.9-0.1-1.4-0.1l-0.3,0c-0.7,0-1.3,0-2,0c-1,0-2,0-3,0C129.3,8.3,128.6,8.4,128,8.4
	L128,8.4z M140.3,10.4l0.2,0.4l0.3,0.7c-0.4,0-0.7-0.1-1.1-0.1l-1-0.1l-1.6-0.1c-0.8,0-1.5,0-2.3,0l-2.7,0.1l-1.6,0.1
	c-0.2-0.2-0.5-0.3-0.7-0.5c-0.1-0.1-0.1-0.1-0.2-0.2l-0.4-0.4c-0.3-0.3-0.6-0.7-0.9-1.1c1.3-0.1,2.7-0.1,4-0.1c0.6,0,1.1,0,1.7,0
	c0.5,0,1.1,0,1.6,0.1l1.3,0.1l0.8,0.1l0.6,0.1l0.6,0.1l0.6,0.1l0.3,0.1C140.1,9.9,140.2,10.1,140.3,10.4L140.3,10.4z M140.2,14.5
	c-1.2,0-2.4,0-3.6,0c-0.8,0-1.6,0.1-2.4,0.1l-0.1-0.1l-0.3-0.2l-0.3-0.2l-0.3-0.2l-0.3-0.2l-0.3-0.2l-0.3-0.2l-0.2-0.2l-0.2-0.2
	l-0.2-0.3l-0.4-0.6l0.2,0c1.1,0,2.2-0.1,3.3-0.1c1.2,0,2.3,0,3.5,0.1l1.8,0.1l1.2,0.1l0.4,0.7l1.2,1.6
	C142,14.5,141.1,14.5,140.2,14.5L140.2,14.5z M140.1,18.4l-0.7-0.2l-0.5-0.2l-0.4-0.2l-0.4-0.2l-0.4-0.2l-0.4-0.2l-0.2-0.1l-0.3-0.3
	l-0.3-0.3l-0.1-0.1l-0.3-0.3l-0.3-0.3c-0.1-0.1-0.2-0.3-0.3-0.4c0,0-0.1-0.1-0.1-0.2c1,0,2.1-0.1,3.1-0.1l1.3,0c0.1,0,0.2,0,0.2,0
	c0.9,0,1.9,0.1,2.8,0.2c0.2,0,0.4,0,0.5,0.1l0,1.9l0,0.3c-0.9,0.4-1.6,0.6-2.9,0.8L140.1,18.4L140.1,18.4z M111.5,5
	c0.2,0.3,0.5,0.5,0.7,0.8c0.2,0.2,0.4,0.4,0.6,0.5l0.3,0.2l0.3,0.2l0.3,0.2L114,7l0.1,0.1l3.9,1.2c0.2,0,0.3,0.1,0.5,0.1
	c0.5,0.1,1.1,0.3,1.6,0.4L121,9l0.9,0.2l0.9,0.2l0.9,0.2l0.9,0.1l0.9,0.1l0.9,0.1l0.9,0.1l0.9,0.1l-0.2-0.3l-0.3-0.5L127.4,9l-1.2-1
	l-0.3-0.3c-0.2-0.2-0.3-0.4-0.5-0.5L123.5,7l-1.4-0.1l-1.3-0.1l-1.2-0.1l-1.2-0.2l-1.1-0.2l-1-0.2L115.4,6l-0.9-0.2l-0.8-0.2
	L113,5.3l-0.7-0.2l-0.6-0.2l-0.3-0.1C111.4,4.8,111.5,4.9,111.5,5L111.5,5z M131.5,13.5c-0.3-0.3-0.6-0.7-0.9-1
	c-0.1-0.1-0.2-0.3-0.3-0.5c-0.2-0.2-0.5-0.3-0.7-0.5l-0.2-0.2c-0.1-0.1-0.3-0.2-0.4-0.4l-0.2-0.2l-0.8,0l-1-0.1l-1-0.1l-1-0.1
	l-0.5-0.1l-1-0.1l-0.9-0.2l-0.9-0.2l-0.9-0.2l-0.9-0.2c-0.6-0.1-1.1-0.3-1.7-0.4L117.9,9l-2.9-0.9l0.1,0.1l0.4,0.5l0.4,0.5l0.4,0.4
	l0.4,0.4l0.5,0.4l0.5,0.4l0.5,0.4l0.5,0.3l0.6,0.3l0.6,0.3l0.6,0.3l0.6,0.3l0.6,0.2l0.6,0.2l0.6,0.2l0.7,0.2l0.7,0.2l0.7,0.1
	l0.7,0.1l0.7,0.1l0.7,0.1l0.7,0.1l0.7,0.1l0.7,0l0.7,0l0.7,0l0.7,0l0.7,0l0.3,0C132,14.1,131.7,13.8,131.5,13.5L131.5,13.5z
	 M141.2,5.7l-0.2-0.1l-0.4-0.2l-0.4-0.2l-0.4-0.1l-0.2-0.1L139.4,5l-0.2,0l-0.2,0l-0.2,0l-0.2,0h-2l-6,0l-3.1,0
	c-1.5,0-3-0.1-4.5-0.1c-1.5,0-3-0.1-4.5-0.2l-1.8-0.1l-1.7-0.1l-1.7-0.1c-0.6-0.1-1.2-0.1-1.8-0.2c0.4,0.2,0.8,0.3,1.3,0.5l0.5,0.1
	l0.5,0.1l0.5,0.1l0.5,0.1l0.6,0.1l0.6,0.1l0.6,0.1l0.7,0.1l0.7,0.1l0.8,0.1l0.8,0.1l0.8,0.1l0.9,0.1l0.9,0.1l1,0.1l1,0.1l1.1,0.1
	l1.1,0.1l1.2,0.1l1.2,0l1.3,0l1.4,0l1.4,0l0.6,0l0.6,0l0.6,0l0.6,0.1l0.6,0.1l0.3,0l0.6,0.1l0.6,0.1l0.5,0.1l0.5,0.2l0.2,0.1
	l0.2,0.1l0.2,0.1l0.2,0.1l0.2,0.1l0.2,0.1l0.2,0.1l0.2,0.1l0.2,0.1l0.1,0.1l0.1,0.2l0.1,0.2l0.1,0.2l0.1,0.2l0.2,0.6
	c0.1,0.1,0.1,0.3,0.2,0.4l0.5,1l0.2,0.3l0.3,0.5l0.5,0.9l0.2,0.3l0.3,0.5l0.3,0.3v-3.9l0-0.3l0-0.2l0.1-0.3l0.1-0.3l0.2-0.4l0.1-0.2
	l-0.4-0.5l-0.3-0.3l-0.3-0.3l-0.3-0.3l-0.3-0.3l-0.2-0.1L142,6.2L141.6,6L141.2,5.7L141.2,5.7z M121.6,13.7l-0.5-0.2l-0.5-0.2
	l-0.4-0.2l0.1,0.2l0.3,0.5l0.3,0.5l0.4,0.5l0.4,0.4l0.4,0.4l0.5,0.4l0.5,0.4l0.5,0.3l0.6,0.3l0.6,0.3l0.6,0.3l0.6,0.2l0.7,0.2
	l0.7,0.2l0.7,0.2l0.7,0.2l0.7,0.1l0.8,0.1l0.8,0.1l0.8,0.1l0.8,0l0.8,0l0.8,0l0.9,0l0.9,0L137,19l0.9-0.1l0.7-0.1l-0.4-0.2l-0.4-0.2
	l-0.4-0.2l-0.2-0.1l-0.4-0.2l-0.2-0.1l-0.2-0.1l-0.2-0.1l-0.2-0.2l-0.2-0.2l-0.2-0.2l-0.2-0.2l-0.2-0.2l-0.3-0.4L135,16l-0.2-0.4
	l-1.4-0.7c-0.3,0-0.6,0-0.9,0c-0.6,0-1.3,0-1.9,0l-0.9,0l-0.9,0l-0.9-0.1l-0.9-0.1l-0.4-0.1l-0.9-0.1l-0.4-0.1l-0.4-0.1l-0.4-0.1
	l-0.4-0.1l-0.4-0.1l-0.5-0.1l-0.5-0.1l-0.5-0.1L121.6,13.7L121.6,13.7z M146.3,20.2h3.8l-0.2,0.1l-0.5,0.2l-0.5,0.2l-0.4,0.2
	l-0.4,0.2l-0.4,0.1l-0.4,0.1l-0.4,0.1l-0.4,0.1l-0.4,0l-0.4,0l-0.3,0l-0.3,0l-0.3,0l-0.3-0.1l-0.3-0.1l-0.3-0.1l-0.3-0.1l-0.3-0.1
	l-0.3-0.2l-0.2-0.2l-0.2-0.2l-0.2-0.2l-0.2-0.2l-0.2-0.2l-0.2-0.3l-0.2-0.3l-0.1-0.1c0.8-0.2,1.6-0.4,2.2-0.7l0,0l0.1,0.2l0.1,0.2
	l0.1,0.1l0.1,0.2l0.2,0.2l0.2,0.2l0.2,0.1l0.2,0.1l0.2,0.1l0.2,0.1l0.2,0.1l0.2,0.1l0.2,0l0.2,0L146.3,20.2L146.3,20.2z M161.1,10.8
	V9.4h4.3v1.3c-0.2,0-0.4,0-0.5,0c-0.1,0-0.2,0-0.3,0l0,0l-0.1,0l0,0l0,0l0,0l0,0l0,0l0,0.1l0,0.1l0,2.2l2.6-2.4
	c0.1-0.1,0.1-0.1,0.2-0.2c0,0,0,0,0-0.1c0,0,0,0,0-0.1c0,0,0,0-0.1,0c-0.1,0-0.1,0-0.2,0l-0.5,0V9.4h4v1.3l-0.3,0
	c-0.1,0-0.2,0-0.3,0c-0.2,0.1-0.3,0.2-0.4,0.3l-0.1,0.1l-2.1,1.8l2.4,3.2l0.1,0.2l0.1,0.1l0.1,0.1l0,0l0,0l0,0l0,0l0.1,0l0.1,0
	l0.1,0l0.1,0l0.1,0l0.1,0l0.3,0v1.3h-4.4v-1.3c0.2,0,0.5,0,0.7,0c0,0,0.1,0,0.1,0c0,0,0,0,0,0c0,0,0,0,0,0c0-0.1-0.1-0.1-0.1-0.2
	l-1.5-2.1l-1.2,1l0,0.9l0,0.1l0,0.1l0,0.1l0,0c0,0,0,0,0,0.1l0,0c0,0,0,0,0.1,0c0.1,0,0.2,0,0.3,0c0.2,0,0.4,0,0.6,0v1.3h-4.3v-1.3
	c0.2,0,0.4,0,0.5,0l0.1,0l0.1,0l0,0l0,0l0,0l0,0l0,0c0,0,0,0,0-0.1c0,0,0-0.1,0-0.1l0-0.1l0-0.2l0-4.7c0-0.1,0-0.1,0-0.2l0-0.1l0,0
	l0-0.1l0,0l0,0l0,0l-0.1,0l0,0l-0.1,0l-0.1,0C161.5,10.8,161.3,10.8,161.1,10.8L161.1,10.8z M153.2,10.8V9.4h4.3v1.3l-0.5,0
	c-0.1,0-0.2,0-0.3,0c0,0,0,0-0.1,0l0,0l0,0l0,0l0,0l0,0.1l0,0.1l0,0.1l0,4.9c0,0.1,0,0.2,0,0.3l0,0c0,0.1,0.1,0.1,0.2,0.1
	c0.2,0,0.4,0,0.5,0c0.1,0,0.2,0,0.3,0c0.1,0,0.2,0,0.2,0l0.1,0l0.1,0l0.1,0l0.1-0.1l0.1-0.1l0.1-0.1c0.1,0,0.1-0.1,0.2-0.1l0.1-0.1
	c0.1,0,0.1-0.1,0.2-0.2c0.1-0.1,0.1-0.1,0.1-0.2l0.1-0.1l0.1-0.1l0.1-0.1l0.1-0.2l0.1-0.2c0-0.1,0.1-0.2,0.1-0.3l0.1-0.3l1.3,0.4
	l-1.2,3.3h-6.6v-1.3l0.5,0l0.1,0l0.1,0l0.1,0l0.1,0c0,0,0,0,0.1-0.1c0,0,0,0,0-0.1l0,0l0-0.1l0-0.1l0-0.1l0-4.9c0-0.1,0-0.1,0-0.2
	l0-0.1l0-0.1l0-0.1l0,0c0,0,0,0-0.1-0.1l0,0l0,0l-0.1,0c0,0-0.1,0-0.1,0L153.2,10.8L153.2,10.8z M149.1,11l0.2,0c0.1,0,0.1,0,0.2,0
	l0.1,0l0.1,0l0.1,0l0.1,0l0.1,0.1l0,0l0.1,0l0,0l0,0l0,0l0,0l0,0l0,0.1l0,0.1l0,0.1l0,0.1l0,0.1l0,0.1l0,0.1l0,0.1l0,0.1l0,0.1
	l0,0.1l0,0.1l0,0.1l0,0.1l0,0.1l0,0.1l0,0.1l0,0.1l0,0.1l0,0.1l-0.1,0.1l-0.1,0.1l-0.1,0l-0.1,0l-0.1,0l-0.1,0c0,0-0.1,0-0.1,0
	c-0.1,0-0.1,0-0.2,0c-0.1,0-0.1,0-0.2,0c-0.1,0-0.2,0-0.3,0c-0.3,0-0.5,0-0.8,0V11H149.1L149.1,11z M145,10.8V9.4h4.6
	c0.1,0,0.2,0,0.3,0c0.1,0,0.2,0,0.3,0c0.1,0,0.2,0,0.3,0c0.1,0,0.2,0,0.3,0c0.1,0,0.2,0,0.2,0.1c0.1,0,0.1,0,0.2,0.1
	c0.1,0,0.1,0.1,0.2,0.1c0.1,0,0.1,0.1,0.2,0.1c0.1,0,0.1,0.1,0.2,0.1c0.1,0,0.1,0.1,0.2,0.1l0.1,0.1l0.1,0.1l0.1,0.1l0.1,0.1
	l0.1,0.1l0.1,0.1l0.1,0.1l0.1,0.1l0.1,0.1l0,0.1c0,0.1,0,0.1,0.1,0.2c0,0.1,0,0.1,0.1,0.2c0,0.1,0,0.1,0,0.2c0,0.1,0,0.1,0,0.2
	c0,0.1,0,0.1,0,0.2l0,0.1l0,0.1l0,0.1l0,0.1l0,0.1l0,0.1l0,0.1l-0.1,0.1l-0.1,0.1l-0.1,0.1l-0.1,0.1l-0.1,0.1l-0.1,0.1l-0.1,0.1
	l-0.1,0.1l-0.1,0.1l-0.1,0.1l-0.1,0.1l-0.1,0.1l-0.1,0.1l-0.1,0.1l-0.1,0.1l-0.1,0.1l-0.1,0l-0.1,0l-0.2,0l-0.2,0l-0.2,0l-0.2,0
	l-0.2,0l-0.2,0l-0.2,0h-1.4l0,1.6c0,0.1,0,0.2,0,0.3c0,0,0,0,0,0.1c0,0,0,0,0,0.1c0,0,0,0,0.1,0l0.1,0c0,0,0.1,0,0.1,0l0.1,0l0.6,0
	v1.3H145v-1.3h0.4c0.1,0,0.2,0,0.2,0l0.1,0l0.1,0l0,0l0,0l0,0l0,0l0,0l0,0l0-0.1l0-0.1l0-0.1l0-4.7c0-0.1,0-0.2,0-0.2l0-0.1l0-0.1
	l0,0l0,0c0,0,0,0,0-0.1c0,0,0,0-0.1,0l-0.1,0c0,0-0.1,0-0.1,0l-0.1,0L145,10.8L145,10.8z M154.1,21.1l0.5-0.2l0.5-0.3l0.5-0.3
	l0.4-0.3h4.1l0.4,0.3l0.5,0.3l0.5,0.3l0.5,0.2l0.6,0.2l0.6,0.2l0.6,0.2l0.7,0.2l0.7,0.2l0.7,0.2l0.7,0.1l0.7,0.1l0.8,0.1l0.8,0.1
	l0.8,0.1l0.8,0.1l0.8,0.1l0.8,0.1l0.8,0.1l0.8,0l0.8,0l0.7,0l1.4,0c0.8,0,1.6,0,2.3,0c0.7,0,1.5,0,2.2,0v1.4H135v-1.4
	c0.2,0,0.4,0,0.7,0c0.8,0,1.7,0,2.5,0l1.5,0l1.5,0l0.7,0l0.8,0l0.8,0l0.8-0.1L145,23l0.8-0.1l0.8-0.1l0.8-0.1l0.8-0.1l0.7-0.1
	l0.7-0.1l0.7-0.1l0.7-0.2l0.7-0.2l0.7-0.2l0.6-0.2l0.6-0.2L154.1,21.1L154.1,21.1z M161.9,20.4l0.3,0.1l0.5,0.2l0.6,0.2l0.6,0.2
	l0.6,0.2l0.7,0.2l0.7,0.1l0.7,0.1l1.6,0.3l-1.5-0.5c-0.3-0.1-0.6-0.3-1-0.4l-0.8-0.4c-0.2-0.1-0.5-0.3-0.7-0.4h-2.8L161.9,20.4z"/>
</svg>
